<?xml version="1.0" encoding="iso-8859-1"?>
<!-- Generator: Adobe Illustrator 19.0.0, SVG Export Plug-In . SVG Version: 6.00 Build 0)  -->
<svg version="1.1" id="Capa_1" xmlns="http://www.w3.org/2000/svg" xmlns:xlink="http://www.w3.org/1999/xlink" x="0px" y="0px"
	 viewBox="0 0 512 512" style="enable-background:new 0 0 512 512;" xml:space="preserve">
<g>
	<path d="M476.447,145.014c-12.51-29.005-30.382-54.93-53.12-77.053c-46.826-45.56-108.646-69.66-174.065-67.869
		C186.321,1.819,127.476,28.367,83.565,74.847c-43.549,46.099-67.533,106.457-67.533,169.957v139.454
		c0,35.077,28.537,63.613,63.613,63.613h40.081c4.705,0,8.532,3.828,8.532,8.532v24.048c0,17.396,14.153,31.548,31.549,31.548
		h192.387c17.396,0,31.549-14.152,31.549-31.548v-24.048c0-4.705,3.828-8.532,8.532-8.532h40.081
		c35.076,0,63.613-28.537,63.613-63.613V239.968C495.968,206.994,489.4,175.048,476.447,145.014z M480.968,384.258
		c0,26.806-21.808,48.613-48.613,48.613h-40.081c-12.976,0-23.532,10.557-23.532,23.532v24.048c0,9.125-7.424,16.548-16.549,16.548
		h-8.533v-16.549c0-4.142-3.358-7.5-7.5-7.5s-7.5,3.358-7.5,7.5V497H303.58v-16.549c0-4.142-3.358-7.5-7.5-7.5s-7.5,3.358-7.5,7.5
		V497h-25.081v-16.549c0-4.142-3.358-7.5-7.5-7.5c-4.142,0-7.5,3.358-7.5,7.5V497h-25.081v-16.549c0-4.142-3.358-7.5-7.5-7.5
		s-7.5,3.358-7.5,7.5V497h-25.081v-16.549c0-4.142-3.358-7.5-7.5-7.5s-7.5,3.358-7.5,7.5V497h-8.531
		c-9.125,0-16.549-7.423-16.549-16.548v-24.048c0-12.976-10.557-23.532-23.532-23.532H79.645c-26.805,0-48.613-21.808-48.613-48.613
		V244.804c0-59.653,22.529-116.354,63.437-159.655c41.155-43.564,96.274-68.446,155.205-70.062c2.134-0.059,4.255-0.087,6.38-0.087
		c58.965,0,114.442,22.487,156.813,63.713c43.916,42.728,68.101,99.996,68.101,161.255V384.258z"/>
	<path d="M270.338,358.517c-2.409-5.823-8.037-9.585-14.338-9.585c-6.301,0-11.929,3.762-14.338,9.585l-25.407,61.42
		c-2.391,5.78-1.094,12.39,3.303,16.838c4.397,4.45,10.991,5.823,16.798,3.499l16.475-6.59c2.044-0.818,4.294-0.816,6.337,0
		l16.475,6.59c1.876,0.75,3.833,1.115,5.773,1.115c4.065,0,8.048-1.603,11.025-4.614c4.397-4.448,5.693-11.058,3.303-16.838
		L270.338,358.517z M281.774,426.231c-0.239,0.244-0.394,0.182-0.559,0.117l-16.476-6.591c-2.818-1.127-5.778-1.69-8.739-1.69
		c-2.961,0-5.922,0.563-8.74,1.691l-16.475,6.59c-0.165,0.064-0.319,0.126-0.559-0.117c-0.241-0.244-0.177-0.397-0.11-0.56
		l25.407-61.42c0.067-0.164,0.132-0.318,0.477-0.318c0.345,0,0.409,0.154,0.477,0.318l25.407,61.42
		C281.951,425.833,282.014,425.987,281.774,426.231z"/>
	<path d="M87.537,281.179c1.562-14.831,7.974-28.256,18.542-38.825c10.569-10.569,23.994-16.98,38.825-18.542
		c14.406-1.518,29.062,1.876,41.26,9.557c3.506,2.208,8.135,1.154,10.343-2.351c2.207-3.505,1.155-8.136-2.351-10.343
		c-15.032-9.465-33.083-13.647-50.823-11.781c-18.024,1.898-35.021,10.014-47.86,22.854c-12.839,12.839-20.955,29.836-22.853,47.86
		c-1.868,17.741,2.315,35.791,11.781,50.823c1.426,2.264,3.862,3.505,6.354,3.505c1.366,0,2.748-0.373,3.989-1.154
		c3.505-2.207,4.558-6.838,2.351-10.343C89.414,310.241,86.02,295.588,87.537,281.179z"/>
	<path d="M219.18,245.699c-2.207-3.505-6.839-4.557-10.343-2.351c-3.505,2.207-4.558,6.838-2.351,10.343
		c7.68,12.197,11.075,26.851,9.557,41.26c-1.562,14.831-7.974,28.256-18.542,38.825c-10.569,10.568-23.994,16.98-38.825,18.542
		c-14.412,1.518-29.063-1.876-41.26-9.557c-3.505-2.208-8.136-1.154-10.343,2.351c-2.207,3.505-1.155,8.136,2.351,10.343
		c12.689,7.99,27.527,12.216,42.516,12.216c2.768,0,5.542-0.144,8.308-0.436c18.024-1.898,35.021-10.014,47.86-22.853
		c12.839-12.839,20.956-29.836,22.854-47.86C232.83,278.78,228.646,260.731,219.18,245.699z"/>
	<path d="M295.922,281.179c1.562-14.831,7.974-28.256,18.542-38.825c10.569-10.569,23.994-16.98,38.825-18.542
		c14.407-1.518,29.062,1.876,41.26,9.557c3.506,2.208,8.135,1.154,10.343-2.351c2.207-3.505,1.155-8.136-2.351-10.343
		c-15.033-9.465-33.084-13.647-50.823-11.781c-18.024,1.898-35.021,10.014-47.86,22.854c-12.839,12.839-20.955,29.836-22.853,47.86
		c-1.868,17.741,2.315,35.791,11.781,50.823c1.426,2.264,3.862,3.505,6.354,3.505c1.366,0,2.748-0.373,3.989-1.154
		c3.505-2.207,4.558-6.838,2.351-10.343C297.798,310.241,294.404,295.588,295.922,281.179z"/>
	<path d="M414.872,253.691c7.68,12.197,11.075,26.851,9.557,41.26c-1.562,14.831-7.974,28.256-18.542,38.825
		c-10.569,10.568-23.994,16.98-38.825,18.542c-14.41,1.518-29.063-1.876-41.26-9.557c-3.506-2.208-8.136-1.154-10.343,2.351
		c-2.207,3.505-1.155,8.136,2.351,10.343c12.689,7.99,27.527,12.216,42.516,12.216c2.768,0,5.542-0.144,8.308-0.436
		c18.024-1.898,35.021-10.014,47.86-22.853c12.839-12.839,20.956-29.836,22.854-47.86c1.868-17.742-2.316-35.791-11.781-50.823
		c-2.207-3.505-6.838-4.557-10.343-2.351C413.717,245.555,412.665,250.186,414.872,253.691z"/>
</g>
<g>
</g>
<g>
</g>
<g>
</g>
<g>
</g>
<g>
</g>
<g>
</g>
<g>
</g>
<g>
</g>
<g>
</g>
<g>
</g>
<g>
</g>
<g>
</g>
<g>
</g>
<g>
</g>
<g>
</g>
</svg>
