<?xml version="1.0" encoding="UTF-8"?>
<svg width="77.988mm" height="119.33mm" version="1.1" viewBox="0 0 276.33619 422.82598" xmlns="http://www.w3.org/2000/svg">
 <g transform="translate(997.64 -132.57)">
  <g transform="matrix(1 -.0029424 .0029424 1 -372.12 76.154)" fill-rule="evenodd">
   <path d="m-490.6 188.24-3.037-0.39373c-5.3789 9.0051-11.342 16.145-17.678 22.098 3.8776-6.009 8.5937-11.102 11.577-18.089-8.6371 4.2473-13.439 23.596-26.345 11.033 2.3761 0.67424 5.0862 2.9831 7.1278 2.0201-3.364-1.8979-8.6228-7.4134-12.288-14.294-1.7537 2.7603-0.32366 5.0462 1.1073 7.3319-3.9027-2.5559-6.9366-10.113 0.43374-21.828-1.9363-1.736-4.1062 3.2676-6.0428 6.0364 1.9962-3.8525 2.0334-10.365 7.8248-11.117 4.7856-0.62134 13.821 5.8058 17.941 4.5347-0.17985-1.7403-6.8112-5.1918-10.174-8.2432l11.732 5.3536c-0.6138-2.3888-3.3366-5.313-5.1387-8.0035 1.9871 1.3991 4.9353 4.4063 5.9604 4.1958 1.3924 0.24593-0.19372-2.4034-0.82655-4.126l4.031 5.9028c1.2749 0.91032 2.0769-0.0538 3.0803-0.21967l-0.25415 2.4594c4.2128 3.4875 8.9648 2.3275 10.122 1.7194z"/>
   <path d="m-491.23 193.55-3.8595 16.492s2.6793-4.3794 3.3185-6.8628c0.79788-3.0999 0.54103-9.6291 0.54103-9.6291z"/>
   <path d="m-491.03 188.27 2.9614-0.8215c6.4466 8.1618 13.242 14.392 20.258 19.393-4.5875-5.4053-9.8926-9.7832-13.714-16.285 9.0868 2.9833 16.242 21.479 27.479 7.195-2.2716 1.0057-4.6718 3.679-6.8146 3.0144 3.0992-2.3588 7.6286-8.5724 10.409-15.913 2.08 2.4869 0.94566 4.9557-0.18966 7.4244 3.5518-3.0875 5.623-11.009-3.1329-21.573 1.7042-1.9956 4.4745 2.6557 6.7369 5.125-2.4556-3.535-3.2991-9.9851-9.1324-9.908-4.8203 0.0637-12.98 7.7171-17.221 7.0423-0.0372-1.7505 6.1081-6.1132 9.063-9.6151l-10.965 6.9722c0.31257-2.4548 2.6492-5.7398 4.1022-8.6625-1.7963 1.6689-4.3461 5.0682-5.3881 5.0052-1.3496 0.44147-0.10561-2.4096 0.30831-4.207l-3.2644 6.4231c-1.151 1.0833-2.0652 0.24156-3.0803 0.21966l0.55646 2.4016c-3.7438 4.0549-8.5974 3.58-9.8193 3.1415z"/>
   <path d="m-486.73 229.43c3.4827-0.25948 3.5493 9.8576 3.5493 9.8576s-0.55576-8.859 1.7297-9.2168c2.24-0.35068 3.8171 4.444 3.8171 4.444s0.17032-5.3278 1.9568-5.5648c1.3578-0.18012 3.0071 2.9914 3.0071 2.9914s-0.92243-6.3756 1.1468-6.5551c4.4409 0.44119 4.8666 14.896 2.4598 15.484-1.6097 0.28583-3.1293-4.0307-3.1293-4.0307s0.39295 5.8637-1.5747 6.154c-2.2822 0.33671-3.561-6.3426-3.561-6.3426s0.8193 7.5111-1.6474 7.7621c-2.3288 0.23699-4.1744-4.172-4.1744-4.172s-0.33889 5.1878-2.1842 5.1494c-1.6783-0.0349-3.0375-4.3401-3.0375-4.3401l-0.5649 5.3274s4.8625-0.90912 6.5103-0.97895c1.3325-0.0565 2.5864 1.0394 3.9129 0.89233 1.7233-0.19112 3.1228-1.6244 4.7537-2.2502 1.7677-0.67824 3.8814-0.47693 5.4262-1.62 0.78262-0.57906 1.9459-1.4824 1.6891-2.4632-0.6392-2.4414 2.6981-5.6793 2.6981-5.6793-0.44769 0.15434-1.1383-5.0692 1.2156-7.2998 0 0 1.4655-3.0147 2.8318-3.5311 2.124-0.80282 4.628 2.3877 6.645 1.314 2.2195-1.1816 2.0538-5.245 3.3375-7.1155 2.1282-3.101 5.6254-3.8518 7.2826-7.2666 0.92945-1.9152 1.3253-4.2219 1.1009-6.3668-0.30067-2.8744-3.2016-7.9712-3.2016-7.9712-0.35828-0.89201 3.0222-10.634 4.227-10.72l-0.94692-11.523-1.9141-5.7819-1.2955 1.387 1.3026 7.0585s1.3777 5.099 0.993 7.6355c-0.54327 3.5824-3.8301 6.2006-4.5173 9.7546-0.26793 1.3856-0.33889 2.9501 0.20606 4.2392 0.52007 1.2302 2.1299 1.6282 2.7091 2.8277 0.78582 1.6276 0.997 3.6101 0.79826 5.43-0.12134 1.1112-0.58206 2.1947-1.1886 3.1056-1.6253 2.441-4.6988 3.4845-6.3092 5.9368-1.1578 1.7632-2.2167 6.0149-2.2167 6.0149s-0.98607 1.3071-1.6852 1.5998c-0.7677 0.32137-2.4723 0.053-2.4723 0.053s-2.2807-0.90736-2.9957-1.8825c-0.42457-0.579-0.90762-1.4614-0.59215-2.1155 0.58185-1.2064 3.6035-1.305 3.6035-1.305s-2.7577 0.10357-4.0505-0.32765c-27.495-15.85-0.95718 0.80759-8.2618 6.0144-2.3967 1.4911-7.4435-3.9697-7.4435-3.9697s-0.63875 0.657-1.0432 0.8142c-0.43199 0.1679-1.769-0.15634-1.3756 0.0981 2.3846 1.5425 5.5809 2.6481 5.5253 2.7501 0 0-0.77102 4.1483-2.2739 4.1694-1.3876 0.0195-2.1931-3.7892-2.1931-3.7892s0.76325 4.1605-0.53913 5.2171c-1.2698 1.0302-3.7313 0.50657-4.7153-0.83509-0.58541-0.7982 0.21419-3.0361 0.21419-3.0361-0.18021-0.0739-0.48966 2.8934-1.032 3.7726-0.8451 1.3702-4.3582-0.44333-4.3582-0.44333l0.0311 10.337s-1.2692-8.8682 1.8146-9.098z"/>
   <path d="m-532.48 207.19c7.4323 3.7063 10.279 10.581 17.301 12.826-6.5438-2.3966-6.1124-7.4106-17.301-12.826z"/>
   <path d="m-489.75 193.44 5.8677 15.798s-3.198-3.9602-4.1391-6.331c-1.1747-2.9593-1.7287-9.4673-1.7287-9.4673z"/>
   <path d="m-446.96 211.52c-1.0477-4.2265-4.4858-8.2825-7.608-12.361 3.4924 5.5061 5.0651 9.5607 7.608 12.361z"/>
   <path d="m-454.1 211.82c3.003-2.9633 4.7504-8.1116 6.6638-12.971-2.92 5.8759-5.5361 9.2564-6.6638 12.971z"/>
   <path d="m-490.21 229.43c-3.2985-0.37654-3.5493 9.8576-3.5493 9.8576s0.55576-8.859-1.7297-9.2168c-2.24-0.35068-3.8171 4.444-3.8171 4.444s-0.17032-5.3278-1.9568-5.5648c-1.3578-0.18012-3.0071 2.9914-3.0071 2.9914s0.92243-6.3756-1.1468-6.5551c-4.4409 0.44119-4.8666 14.896-2.4598 15.484 1.6097 0.28583 3.1293-4.0307 3.1293-4.0307s-0.39295 5.8637 1.5747 6.154c2.2822 0.33671 3.561-6.3426 3.561-6.3426s-0.8193 7.5111 1.6474 7.7621c2.3288 0.23699 4.1744-4.172 4.1744-4.172s0.33889 5.1878 2.1842 5.1494c1.6783-0.0349 3.2607-4.5186 3.2607-4.5186l-0.50654 5.506s-4.0143-0.90912-5.6621-0.97895c-1.3325-0.0565-2.5864 1.0394-3.9129 0.89233-1.7233-0.19112-3.1228-1.6244-4.7537-2.2502-1.7677-0.67824-3.8814-0.47693-5.4262-1.62-0.78262-0.57906-1.9459-1.4824-1.6891-2.4632 0.6392-2.4414-2.6981-5.6793-2.6981-5.6793 0.44769 0.15434 1.1383-5.0692-1.2156-7.2998 0 0-1.4655-3.0147-2.8318-3.5311-2.124-0.80282-4.628 2.3877-6.645 1.314-2.2195-1.1816-2.0538-5.245-3.3375-7.1155-2.1282-3.101-5.6254-3.8518-7.2826-7.2666-0.92945-1.9152-1.3253-4.2219-1.1009-6.3668 0.30067-2.8744 3.2016-7.9712 3.2016-7.9712 0.35828-0.89201-3.0222-10.634-4.227-10.72l0.94692-11.523 1.9141-5.7819 1.2955 1.387-1.3026 7.0585s-1.3777 5.099-0.993 7.6355c0.54327 3.5824 3.8301 6.2006 4.5173 9.7546 0.26793 1.3856 0.33889 2.9501-0.20606 4.2392-0.52007 1.2302-2.1299 1.6282-2.7091 2.8277-0.78582 1.6276-0.997 3.6101-0.79826 5.43 0.12134 1.1112 0.58206 2.1947 1.1886 3.1056 1.6253 2.441 4.6988 3.4845 6.3092 5.9368 1.1578 1.7632 2.2167 6.0149 2.2167 6.0149s0.98607 1.3071 1.6852 1.5998c0.7677 0.32137 2.4723 0.053 2.4723 0.053s2.2807-0.90736 2.9957-1.8825c0.42457-0.579 0.90762-1.4614 0.59215-2.1155-0.58185-1.2064-3.6035-1.305-3.6035-1.305s2.7577 0.10357 4.0505-0.32765c27.495-15.85 0.95718 0.80759 8.2618 6.0144 2.3967 1.4911 7.4435-3.9697 7.4435-3.9697s0.63875 0.657 1.0432 0.8142c0.43199 0.1679 1.769-0.15634 1.3756 0.0981-2.3846 1.5425-5.5809 2.6481-5.5253 2.7501 0 0 0.77102 4.1483 2.2739 4.1694 1.3876 0.0195 2.1931-3.7892 2.1931-3.7892s-0.76325 4.1605 0.53913 5.2171c1.2698 1.0302 3.7313 0.50657 4.7153-0.83509 0.58541-0.7982-0.21419-3.0361-0.21419-3.0361 0.18021-0.0739 0.48966 2.8934 1.032 3.7726 0.8451 1.3702 4.2243-0.57726 4.2243-0.57726-0.37539 1.6251-0.0357 6.8531 0.0135 10.65-1.666-1.6485 2.7353-8.2392-1.7254-9.2766z"/>
  </g>
  <rect x="-916.21" y="241.21" width="88.388" height="23.739" ry="11.869" fill="#f00"/>
  <path d="m-877.8 555.19c0-1.1782 5.3881-4.1744 10.273-5.7126l4.2269-1.331-8-0.11189c-11.545-0.16147-45.83 2.0832-46.95 3.0738-0.5506 0.48707-0.0251 0.84039 1.25 0.84039 1.21 0 2.1984 0.3375 2.1964 0.75-5e-3 1.1335-22.665 1.5946-23.357 0.47529-0.85328-1.3806 1.5021-3.1524 13.861-10.426 19.405-11.421 52.828-28.799 55.387-28.799 0.61196 0 1.1127-0.40077 1.1127-0.89059 0-1.4657-7.0352-1.9446-14.5-0.98721-3.85 0.4938-12.4 1.5566-19 2.3619-6.6 0.80524-18.75 2.3848-27 3.5101-21.787 2.9719-30.73 1.5403-27.545-4.4097 1.5916-2.974 0.90719-6.1899-4.1683-19.585-7.5079-19.814-9.8132-27.263-8.8112-28.47 0.6579-0.79271-0.74585-2.9517-4.501-6.9227-4.5214-4.7813-5.2855-6.0913-4.4565-7.6402 0.83282-1.5561 0.15701-2.6585-4.0316-6.5765-11.765-11.004-16.506-22.119-15.749-36.921 0.4105-8.0323 0.9151-9.9673 4.5635-17.5 7.827-16.16 21.821-38.189 26.213-41.266 1.0854-0.76027 1.6389-1.7771 1.2299-2.2596-0.409-0.48253-0.0686-0.40002 0.75636 0.18337 0.825 0.58338 2.7375 0.97554 4.25 0.87146s2.75 0.13951 2.75 0.54132 1.0733 1.4338 2.3852 2.2934l2.3852 1.5628-2.1877-6.1978c-1.2032-3.4088-4.8256-10.473-8.0497-15.698s-6.9273-11.369-8.2293-13.654c-1.302-2.2847-3.0279-4.7023-3.8354-5.3724-0.8075-0.67016-1.4645-1.7259-1.46-2.346 5e-3 -0.62016 1.917 0.75244 4.25 3.0502 2.333 2.2978 7.7735 7.4728 12.09 11.5 9.6532 9.0061 18.876 19.65 18.106 20.895-0.31505 0.50976-0.0821 0.92683 0.51759 0.92683 4.0963 0 0.77063-4.2786-17.243-22.184-17.714-17.607-23.75-24.994-23.719-29.026 0.0281-3.7076 5.6198-12.471 12.659-19.838 8.3397-8.729 17.944-15.135 27.625-18.426 5.3373-1.8142 5.5068-1.9831 5.0176-4.998-0.3447-2.1242 4e-3 -3.5438 1.0914-4.4464 2.0094-1.6677 2.0543-3.0812 0.0978-3.0812-1.8167 0-1.9897-1.6294-0.25-2.3538 2.2287-0.92806-2.1693-3.4897-8.1341-4.7378-14.89-3.1155-25.648-6.0742-28.504-7.839-4.4742-2.7652-7.5216-6.2661-8.5374-9.8081-1.0545-3.6768 0.16518-5.2613 4.0498-5.2613 1.4986 0 12.092-2.025 23.541-4.5s21.087-4.5 21.419-4.5 0.89064-9.5625 1.242-21.25c0.79513-26.449 3.8462-42.167 8.6881-44.758 4.9371-2.6423 30.68-5.2199 53.485-5.3554 25.877-0.15378 28.893 0.38999 33.155 5.9778 2.2592 2.962 2.6086 4.3405 2.4609 9.709-0.17783 6.4638-0.27359 6.1419 11.21 37.676l3.4595 9.5 4.8573 0.74474c2.6715 0.40961 8.0073 1.6085 11.857 2.6642 3.85 1.0557 11.725 3.151 17.5 4.6561s10.658 2.8646 10.852 3.021c1.134 0.91641-3.4385 10.576-6.4965 13.725-3.3484 3.4474-17.28 12.301-25.595 16.266-3.2639 1.5564-3.4987 1.9636-3.0589 5.3044 0.262 1.9902-0.23876 6.684-1.1128 10.431-2.6075 11.178-2.9321 10.606 8.8147 15.523 5.696 2.3842 14.869 7.0105 20.384 10.28 7.9994 4.743 11.608 6.248 17.843 7.4408 15.69 3.002 40.57 11.916 41.735 14.954 0.94949 2.4743-3.2103 4.6304-15.515 8.0413-6.793 1.8831-13.303 3.8422-14.466 4.3535-2.0806 0.9144-16.385 11.067-16.385 11.629 0 0.1584 4.3003 2.5857 9.5562 5.394 15.342 8.1976 32.444 20.623 32.444 23.572 0 1.6711-5.7202 6.6394-13 11.291-6.6553 4.2528-13.421 11.255-16.352 16.923-2.039 3.9431-2.0716 7.8938-0.14776 17.947 2.0278 10.597 1.9322 12.297-1.3408 23.838-2.6052 9.186-3.1223 10.163-6.3534 12-5.2483 2.9842-6.8056 4.5291-6.8056 6.7513 0 1.8294-0.44097 1.9479-5 1.3431-4.1158-0.54599-5-0.39193-5 0.87117 0 0.84394-0.70156 1.5344-1.559 1.5344-0.8851 0-1.2633-0.47849-0.87489-1.1069 0.4792-0.77537-0.30675-0.8893-2.6239-0.38038-8.5958 1.888-36.534 11.509-55.891 19.247-11.797 4.7157-22.822 8.5604-24.5 8.5437-3.7996-0.0378-5.5512 1.2826-5.5512 4.1846 0 1.2335-0.9 3.3869-2 4.7853s-2 3.7449-2 5.2143c0 2.4881 0.22342 2.6246 3.25 1.9869 2.3187-0.48858 2.9553-0.37422 2.2214 0.3991-2.2134 2.3325-28.082 1.5876-33.846-0.97469-1.9489-0.86627-1.9178-0.90532 0.37506-0.47139 1.375 0.26021 7.7379 0.78364 14.14 1.1632l11.64 0.69005 0.71713-3.2651c0.47186-2.1484 0.30965-3.5169-0.47429-4.0014-0.80992-0.50056-0.56926-0.89905 0.75156-1.2444 1.1009-0.28789 2.1609-1.6482 2.4459-3.1387 0.42528-2.2247 0.14763-2.6306-1.7994-2.6306-3.0963 0-4.0315 1.7608-1.1852 2.2316 2.0222 0.33444 1.8624 0.57652-1.4904 2.2592-2.0654 1.0366-3.2909 2.1716-2.7234 2.5224 0.56752 0.35074-1.0051 1.1038-3.4947 1.6735-2.4896 0.56971-4.5266 0.91745-4.5266 0.77276s1.4341-1.1711 3.1869-2.2809l3.1869-2.0178-3.6933-0.69287c-2.0313-0.38107-6.9529-0.42667-10.937-0.10132-3.984 0.32535-9.4936 0.59563-12.244 0.60063s-6.3449 0.38295-7.9888 0.83989l-2.9888 0.83079 3.4888 1.2714c1.9188 0.69929 7.5388 1.5611 12.489 1.9152l9 0.64372-7 0.54603c-7.7792 0.6068-15.218-0.73118-21.812-3.9231-5.1109-2.4741-5.6882-2.5424-5.6882-0.67268 0 0.78014 1.4625 2.299 3.25 3.3754 4.2748 2.574 27.847 11.206 30.601 11.206 1.1817 0 2.1486 0.41045 2.1486 0.9121 0 0.50166 1.9125 1.2289 4.25 1.6161 2.3375 0.38722 4.9689 1.0809 5.8476 1.5415 2.3658 1.2402 14.038 2.9646 15.201 2.2457 0.58671-0.36261 0.23812-1.1811-0.8382-1.9681-1.7597-1.2867-1.7612-1.3474-0.0349-1.3474 1.389 0 1.697-0.57906 1.3298-2.5-0.26285-1.375-0.1202-2.5 0.317-2.5s0.9373-1.2375 1.1113-2.75c0.3019-2.6238 0.53911-2.4606 5.1687 3.557 4.2533 5.5284 5.1791 6.2395 7.5 5.76 4.6861-0.96801 33.244-3.5675 39.038-3.5534 7.9327 0.0193 10.11 0.7722 10.11 3.496 0 1.252-0.5625 2.5013-1.25 2.7762-0.6875 0.27492-8.9 3.6419-18.25 7.4822s-23.382 9.2649-31.182 12.055c-7.8002 2.7898-20.175 7.4909-27.5 10.447-7.3248 2.956-16.604 6.6606-20.62 8.2324-7.8666 3.0788-10.333 4.9213-4.9975 3.7329 5.807-1.2934 48.847-0.83381 53.55 0.57179 5.2472 1.5684 5.4238 2.8967 0.5 3.7604-10.579 1.8557-17.626 3.576-20.289 4.953-1.6286 0.84219-2.9611 1.1667-2.9611 0.72118zm18.98-44.85c2.2111-0.88472 4.002-2.1222 3.9796-2.75-0.0224-0.62778-1.322-2.6392-2.8882-4.4697-2.57-3.0039-3.0534-3.1998-4.9594-2.0094-2.4217 1.5124-2.8519 3.059-0.61181 2.1994 1.0499-0.40289 1.5 0.0768 1.5 1.5988 0 1.6152-0.45006 2.0319-1.75 1.6205-0.9625-0.30464-8.5-2.0926-16.75-3.9732s-18.375-4.7606-22.5-6.3999-10.523-3.9125-14.217-5.0515c-8.8292-2.7221-11.998-4.4353-15.164-8.1971-2.8145-3.3448-3.6501-1.8761-1.047 1.8403 3.462 4.9427 38.9 19.97 60.428 25.624 7.2184 1.8959 9.1718 1.8914 13.98-0.0324zm10.02-5.4048c0-0.43966-0.89494-0.56536-1.9888-0.27932-1.0938 0.28604-1.7544 0.89926-1.468 1.3627 0.60832 0.98427 3.4567 0.0915 3.4567-1.0834zm-78.029-28.026c-1.6103-1.0184-3.971-1.2732-3.971-0.42872 0 0.74319 4.3953 2.3319 4.971 1.7968 0.25907-0.2408-0.19093-0.85646-1-1.3681zm18.586-0.0514c4.6001-1.4208 6.3337-2.3589 5.412-2.9285-0.86852-0.53677 0.89333-1.0925 4.9009-1.5459 3.6221-0.4098 5.8848-1.08 5.3732-1.5916-0.51155-0.51155-4.223-0.0635-8.8136 1.064-5.4952 1.3496-7.0089 2.0063-4.93 2.1388 2.555 0.16284 2.2583 0.38184-2 1.4764-2.75 0.70686-6.6875 1.3284-8.75 1.3812s-3.75 0.54603-3.75 1.096c0 1.6144 5.2861 1.1554 12.557-1.0904zm25.172-2.5137c-0.3323-0.33229-1.1948-0.36781-1.9167-0.0789-0.79773 0.31922-0.56078 0.55618 0.60417 0.60416 1.0542 0.0434 1.6448-0.19293 1.3125-0.52522zm-48.729-0.83678c0-0.24254-0.45-0.7191-1-1.059s-1-0.14148-1 0.44098 0.45 1.059 1 1.059 1-0.19844 1-0.44098zm52.729-0.16319c-0.3323-0.33229-1.1948-0.36781-1.9167-0.0789-0.79773 0.31922-0.56078 0.55618 0.60417 0.60416 1.0542 0.0434 1.6448-0.19293 1.3125-0.52522zm6.597-2.7965c0.58447-0.77778 0.97857-0.7215 1.3472 0.19238 0.75146 1.8627 3.3266-0.4612 3.3266-3.0021 0-1.7339-0.50072-1.8992-4.25-1.4028-3.9907 0.52834-4.0517 0.50145-1-0.44069 3.4214-1.0563 3.7572-1.5974 2.3597-3.8029-0.60911-0.9613-1.062-1.0294-1.5538-0.23369-0.38175 0.61769-1.0609 0.89638-1.5092 0.61931s-3.2297-0.0682-6.1809 0.46411c-2.9512 0.53233-7.5703 1.1633-10.265 1.4021l-4.8989 0.43419 4.2717-2.4264c2.3494-1.3345 5.454-2.7081 6.8989-3.0525 1.445-0.34437 3.1563-1.0415 3.803-1.5491 0.6467-0.50764 1.7717-0.82229 2.5-0.69922 2.4257 0.40992 6.8242-1.3005 6.8242-2.6537 0-0.73419-0.82859-1.9229-1.8413-2.6416-1.0127-0.71868-2.3453-2.2571-2.9613-3.4187-0.93773-1.7682-0.73117-2.4773 1.2691-4.3564 1.4347-1.3478 2.1489-2.8705 1.7877-3.8116-0.45463-1.1847-0.16583-1.4 1.1835-0.88224 1.5251 0.58524 1.6868 0.29407 1.1107-2.001-0.57422-2.2879-0.45584-2.5048 0.79881-1.4635 1.2265 1.0179 1.5677 0.7543 2.0394-1.5754 0.72149-3.5636 0.0452-34.199-0.77298-35.018-1.266-1.2661-1.7643 0.73465-1.8374 7.3774l-0.0752 6.8424-1.4025-5.3857c-0.98671-3.7889-1.1381-6.6254-0.51074-9.567 0.49049-2.2998 0.51463-5.201 0.0537-6.4471-1.7322-4.6825 1.398-1.4527 3.8124 3.9338 1.9776 4.412 2.3132 4.7911 1.7404 1.966-0.39034-1.925-0.81079-5.975-0.93434-9-0.29046-7.1118-0.95496-8.5482-4.6653-10.085-2.854-1.1822-3.1941-1.0866-5.0116 1.4084-2.6886 3.6908-3.783 3.3528-3.783-1.1684 0-4.2178-1.8493-6.4956-6.0884-7.4992-2.9901-0.7079-6.0806 2.1743-9.4116 8.7772-2.1309 4.2239-3.2435 5.0142-5.2598 3.7357-1.5963-1.0122 1.998-12.163 4.3437-13.476 1.1178-0.62554 1.3644-1.7261 0.90246-4.027-1.1675-5.8148-1.5368-6.4444-4.5002-7.6719-5.3022-2.1962-7.0706-0.8533-12.486 9.4816-5.8084 11.085-7.8264 12.008-8.3011 3.7969-0.16563-2.8646 0.15234-7.3604 0.70661-9.9906 0.55426-2.6302 1.7141-8.3822 2.5773-12.782 0.86326-4.4 2.0597-10.025 2.6588-12.5s1.2178-5.4677 1.3748-6.6504c0.15707-1.1827 0.57683-3.2077 0.93282-4.5 0.4098-1.4876-0.28316-0.88217-1.889 1.6504-1.3949 2.2-2.3109 4.7101-2.0354 5.578 0.7181 2.2628-3.3959 22.229-4.8261 23.422-0.75404 0.62902-1.1386 3.5969-1.0365 8 0.0892 3.85-0.0546 5.9875-0.31955 4.75-0.26498-1.2375-1.0774-2.25-1.8052-2.25-2.096 0-2.7203-3.072-1.1205-5.5136 0.8271-1.2623 1.2029-3.2238 0.86516-4.5155-0.38425-1.4694-0.22119-2.0513 0.4573-1.6319 0.98173 0.60674 4.2414-13.742 4.2796-18.839 8e-3 -1.1 1.3497-4.25 2.9809-7 3.6132-6.0913 3.6594-6.8091 0.54534-8.4757-2.0949-1.1211-2.8278-1.0692-5 0.35408-1.4 0.91727-2.5454 2.2407-2.5454 2.941s-1.5572 3.7274-3.4603 6.727c-1.9032 2.9995-3.7631 7.4787-4.1332 9.9537-0.37009 2.475-1.5381 6.7179-2.5955 9.4288-2.2183 5.6868-3.3304 26.43-1.7741 33.091 0.61224 2.6201 0.55272 5.7157-0.17416 9.0588-0.90646 4.1691-0.80556 6.106 0.56336 10.815 0.91716 3.1549 1.392 6.7196 1.0553 7.9214-0.4532 1.6173-0.35754 1.8158 0.36816 0.7637 0.77053-1.1171 1.2961-0.666 2.4546 2.1066 0.81074 1.9404 1.7984 5.0044 2.1947 6.809 0.69945 3.1846 0.63715 3.265-2.12 2.738-3.083-0.58936-3.097-0.60625 3.1213 3.759 1.9822 1.3915 1.981 1.4045-0.13922 1.4564-3.959 0.0971-6.406-3.0094-7.2459-9.1985-0.98597-7.2657-2.1149-8.5318-2.1149-2.3719 0 3.9315-0.28942 4.6619-1.75 4.4167-4.0827-0.68551 1.7788 10.135 6.9342 12.801 1.5487 0.80085 2.8158 1.6961 2.8158 1.9894 0 0.29333-0.41891 0.27444-0.9309-0.042-0.512-0.31644-1.1943-0.14909-1.5163 0.37188-0.32198 0.52097-0.12589 1.2312 0.43575 1.5783s2.8358 3.3032 5.0536 6.5691c2.2348 3.291 4.7959 5.9538 5.7451 5.9734 0.94201 0.0195 2.8377 0.71143 4.2127 1.5376l2.5 1.5022-3.25-0.61712c-1.7875-0.33941-3.25-0.29346-3.25 0.1021 0 1.549 3.6722 3.3819 7 3.4938l3.5 0.11776-3 0.92719c-1.65 0.50996-4.125 0.66667-5.5 0.34824-2.1894-0.50701-2.3136-0.40243-1 0.84172 2.5138 2.3809 9.7781 4.7109 14.687 4.7109 5.6952 0 5.2432 0.69159-1.2691 1.9418-5.0068 0.96121-17.967-0.36953-19.82-2.035-0.50338-0.45257 0.27011-1.3452 1.75-2.0194 2.9616-1.3494 3.1957-1.9438 1.4521-3.6874-0.80379-0.80379-0.83887-1.2-0.10627-1.2 1.3466 0-5.1978-13.353-7.4399-15.18-0.97576-0.79517-0.46705 0.80927 1.2794 4.0353 2.8261 5.2202 2.8507 5.3908 0.97477 6.7625-1.8641 1.3631-1.8683 1.5023-0.1323 4.4411 1.4493 2.4535 1.5543 3.3205 0.54899 4.5318-1.0213 1.2306-0.85783 1.7678 0.91606 3.0103 2.7851 1.9507 2.8063 3.7391 0.034 2.8592-3.0943-0.98208-1.4568 1.1874 2.4026 3.1832 2.5675 1.3277 4.945 1.5116 12.847 0.99373 11.784-0.77226 17.494-2.476 8.6255-2.5737-3.1625-0.0349-5.75-0.51339-5.75-1.0634 0-0.61641 5.0883-1 13.265-1 11.359 0 13.802-0.28769 17-2.0019 2.0544-1.1011 3.7352-1.5511 3.7352-1s-0.525 1.0019-1.1667 1.0019c-0.64166 0-0.85005 0.31662-0.46307 0.70359 0.38698 0.38698-1.2255 1.5082-3.5833 2.4917l-4.2869 1.7881 4-0.51065c3.7226-0.47524 3.6186-0.37913-1.5 1.386l-5.5 1.8966 7.5-0.52832c4.125-0.29058 7.8718-1.023 8.3261-1.6277zm-12.576-16.366c-2.9082-0.63177-1.9634-2.2335 1.3174-2.2335 3.1798 0 3.2399-0.29104 1.1884-5.75-0.25837-0.6875-0.0629-1.25 0.43428-1.25 1.1224 0 8.8437 7.8183 8.245 8.3486-0.70166 0.62147-9.2753 1.2998-11.185 0.88493zm-9.392-6.6188c0.59568-1.9031 1.3943-3.2679 1.7748-3.0327 0.97611 0.60327-0.52202 5.7144-1.7998 6.1403-0.73684 0.24561-0.72924-0.69773 0.025-3.1076zm-14.326-0.61477c-0.51617-1.5401-0.43191-9.0014 0.10164-9.0008 1.0476 1e-3 1.524 4.3283 0.77066 7.0008-0.3876 1.375-0.78013 2.275-0.8723 2zm-11.896-7.691c-0.0749-1.205-0.61686-2.4881-1.2044-2.8512-0.5875-0.3631-0.86554-1.1882-0.61788-1.8336s-1.0336-5.6624-2.8474-11.149c-1.8137-5.4865-3.1804-10.093-3.0371-10.237 0.47083-0.47289 5.4373 12.14 7.0911 18.008 0.89068 3.1607 1.4242 6.7607 1.1856 8-0.43296 2.2489-0.43407 2.2491-0.56999 0.0624zm13.85-3.559c-7e-3 -1.7875-0.2452-4.375-0.5282-5.75-0.43227-2.1002-0.37399-2.1802 0.3644-0.5 1.4027 3.1918 2.1428 9.5 1.1146 9.5-0.51542 0-0.94328-1.4625-0.95079-3.25zm-5.5275-2.8165c-1.0763-1.7414 0.14952-2.1102 1.5211-0.45764 0.78875 0.95039 0.86462 1.5242 0.20152 1.5242-0.58488 0-1.36-0.47994-1.7226-1.0665zm16.541-0.93347c0-1.1 0.45-2 1-2s1 0.9 1 2-0.45 2-1 2-1-0.9-1-2zm-16.298-2.7337c-0.87094-1.5286-0.54144-7.2472 0.453-7.8618 0.62469-0.38608 0.90345 0.47919 0.71947 2.2332-0.1652 1.5749 0.0279 3.3947 0.4291 4.0438 0.4012 0.64917 0.30322 1.4437-0.21775 1.7657-0.52097 0.32198-1.1437 0.24057-1.3838-0.1809zm21.493-4.7663c0.0204-1.65 0.2445-2.2039 0.49804-1.231s0.23687 2.323-0.037 3c-0.27393 0.67703-0.48137-0.11903-0.46099-1.769zm-28.602-4.5c-1.3266-2.75-2.0887-5-1.6935-5 1.2775 0 4.6417 2.9353 3.4019 2.9682-0.88366 0.0234-0.81438 0.95226 0.26342 3.5318 2.2082 5.285 0.77565 4.1952-1.9718-1.5zm25.14 4.3759c-0.92385-1.4948 0.37975-9.2241 1.7471-10.359 0.93537-0.77629 1.1253-0.0643 0.81373 3.051-0.50042 5.0042-1.7611 8.6018-2.5608 7.3079zm4.4626-5.8759c0.0204-1.65 0.2445-2.2039 0.49804-1.231s0.23687 2.323-0.037 3c-0.27393 0.67703-0.48137-0.11903-0.46099-1.769zm-23.444-5.25c-0.43977-3.5276-0.2085-5.1147 0.60713-4.1667 0.83928 0.97557 1.4426 7.9167 0.68808 7.9167-0.45525 0-1.0381-1.6875-1.2952-3.75zm11.677 1.3214c-1.059-0.77435-1.6683-1.665-1.354-1.9793 0.31429-0.31428 1.4379 0.0621 2.4969 0.83648 1.059 0.77435 1.6683 1.665 1.354 1.9793-0.31429 0.31428-1.4379-0.0621-2.4969-0.83648zm-20.199-3.4715c-3.3219-4.5264-4.1823-7.3865-1.9792-6.5791 1.7662 0.64729 4.1422-1.0773 3.3191-2.4091-0.37792-0.61149-1.5238-1.1118-2.5463-1.1118-2.7768 0-5.0852-1.0899-4.458-2.1048 0.3043-0.49237 1.3716-0.89522 2.3718-0.89522 1.9804 0 4.413-2.3171 3.4469-3.2832-0.32952-0.32953-1.4302-0.0802-2.4458 0.55415-3.672 2.2932-3.0216-0.20033 0.99983-3.8335 4.4081-3.9824 4.7577-5.7782 0.59371-3.0499-3.7826 2.4784-3.115-0.0414 0.96879-3.6569 1.925-1.7043 3.5-3.6909 3.5-4.4147s0.45-1.316 1-1.316c1.5132 0 1.1979 3.2724-0.5567 5.7775-1.1938 1.7044-1.2521 2.2261-0.25 2.2378 0.99014 0.0116 0.96126 0.23393-0.11922 0.91775-1.2158 0.76943-1.2353 1.9127-0.1325 7.7573 0.9058 4.8005 1.0272 8.7962 0.40511 13.332l-0.88832 6.4773-3.2292-4.4zm16.771-1.1936c0-0.49851 0.9-0.90638 2-0.90638s2 0.17252 2 0.38337-0.9 0.61872-2 0.90638-2 0.11514-2-0.38337zm19.479-1.1085c-0.36073-0.93617-0.39357-2.1265-0.073-2.6452 0.32058-0.5187-0.11291-1.2101-0.96332-1.5364-0.8854-0.33976-1.2851-0.17086-0.93524 0.39521 0.33602 0.5437 0.1344 0.98855-0.44806 0.98855-1.8884 0-1.1191-2.1715 0.96206-2.7158 1.588-0.41527 1.776-0.82378 0.87755-1.9064-0.8915-1.0742-0.78594-1.3779 0.47893-1.3779 0.89234 0 1.6224-0.47656 1.6224-1.059s-0.51953-0.73793-1.1545-0.34549c-0.6991 0.43207-0.8837 0.27535-0.46797-0.39731 0.37759-0.61096 1.3631-0.85121 2.19-0.5339 1.1433 0.43871 1.3782 1.642 0.98064 5.0225-0.28756 2.445-0.94827 5.2033-1.4682 6.1294-0.88438 1.5751-0.98775 1.574-1.6013-0.0183zm-14.842-4.3036c-0.31537-0.82184-1.2625-1.4943-2.1048-1.4943-0.84226 0-1.5314-0.49814-1.5314-1.107 0-0.60884 0.71474-0.83271 1.5883-0.49749 1.3416 0.51484 1.4886 0.0195 0.94647-3.1896-0.53871-3.1886-0.27168-4.113 1.6617-5.7525l2.3035-1.9534-1.8861 2.2292c-1.7062 2.0165-1.73 2.289-0.25 2.857 1.1666 0.44766 1.6361 1.8716 1.6361 4.9618 0 4.4217-1.3296 6.6414-2.3638 3.9463zm17.864-18.494c0.33992-0.55 0.81648-1 1.059-1s0.44098 0.45 0.44098 1-0.47656 1-1.059 1-0.7809-0.45-0.44098-1zm-40.531-5.0576c-1.5127-2.8265-0.70669-3.4148 1.4355-1.0478 1.0639 1.1756 1.3365 2.1474 0.71071 2.5341-0.55824 0.34501-1.524-0.32386-2.1462-1.4864zm-11.509 87.932c-0.46703-1.4715-0.32048-1.9064 0.47642-1.4139 1.2862 0.79492 4.3033-1.2636 3.5762-2.4401-0.73275-1.1856-5.6194 0.0931-6.2069 1.6242-0.29135 0.75925 0.0257 2.0497 0.70459 2.8677 1.7259 2.0796 2.2403 1.8532 1.4497-0.63796zm79.115-2.27c11.257-3.8933 39.071-15.53 37.213-15.569-0.94187-0.0196-4.2252 0.90444-7.2964 2.0535-3.0711 1.149-6.2614 1.8292-7.0894 1.5114-0.97369-0.37364-1.2526-0.16848-0.78959 0.58074 0.47816 0.77368 0.16325 0.94638-0.94807 0.51993-0.91522-0.3512-1.664-0.17612-1.664 0.38908s-0.50031 0.71842-1.1118 0.3405c-0.6115-0.37792-1.4288-0.17431-1.8161 0.45248-0.81727 1.3224-22.332 9.1166-25.165 9.1166-1.0489 0-1.9071 0.675-1.9071 1.5 0 2.0947 2.5558 1.8784 10.575-0.89519zm-16.758-7.1454c0.17409-0.14255-0.0565-0.48977-0.51255-0.77159-0.45599-0.28182-1.9484 0.12678-3.3165 0.908l-2.4874 1.4204 3-0.64881c1.65-0.35684 3.1424-0.76544 3.3165-0.90799zm1.7849-13.056c-0.32299-0.84172-1.0417-1.2496-1.597-0.90632-0.66565 0.41139-0.61095 1.3693 0.16049 2.8107 1.2744 2.3813 2.472 0.79382 1.4365-1.9044zm70.399 0.49183c2.6927-1.4983-1.1249-0.98204-4.5 0.60856l-3 1.4138 3-0.59385c1.65-0.32663 3.675-0.96945 4.5-1.4285zm-144.83-43.823c-0.7648-1.9434-1.0784-4.7576-0.7242-6.5 0.34351-1.69 0.72337-3.9727 0.84414-5.0727 0.12076-1.1 0.53719-2.4922 0.92539-3.0938 1.3886-2.1519-0.43796-8.5035-2.9116-10.124-1.3244-0.86778-2.18-2.1718-1.9014-2.8978 0.2786-0.72604 0.0282-1.6157-0.55654-1.9771-0.709-0.43819-0.61118-0.97383 0.29368-1.6082 1.0704-0.75041 1.0892-1.0594 0.0889-1.4643-1.8078-0.73168-4.2322-3.2992-4.2322-4.4821 0-1.7705 5.8872 3.5784 5.9447 5.4011 0.0304 0.9645 0.95533 3.4328 2.0553 5.4852 1.1 2.0524 2 4.7507 2 5.9964 0 4.0888 1.7142 2.3669 2.3641-2.3748 1.1132-8.1216 0.78073-9.8636-2.6141-13.698-2.2986-2.5964-4.3478-3.8342-7-4.2283-3.6492-0.54217-3.75-0.47351-3.75 2.5542 0 1.7112 0.76245 4.5515 1.6943 6.3117 1.2544 2.3693 1.7405 6.0568 1.8721 14.2 0.10975 6.7908 0.84715 13.487 1.9271 17.498 1.2502 4.6443 1.5776 8.3369 1.1475 12.943-0.49294 5.2788-0.28877 6.7921 1.1286 8.365 1.6562 1.838 1.7523 1.4977 2.2417-7.9429 0.36186-6.9806 0.1171-10.865-0.83748-13.29zm11.756 16.677c-0.0387-0.6875-0.45702-2.15-0.92971-3.25-0.72021-1.676-0.87081-1.4735-0.92971 1.25-0.0387 1.7875 0.37971 3.25 0.92971 3.25s0.96837-0.5625 0.92971-1.25zm106.9-8.7712c0.0363-3.8617 0.60297-11.624 1.2592-17.25 0.73106-6.2674 0.94256-15.07 0.54611-22.729-0.93451-18.054-5.3365-35.737-5.7461-23.083-0.0638 1.9708-0.3218 2.7958-0.57333 1.8333-0.48429-1.8532-2.3107-2.446-2.3107-0.75 0 1.8774-1.7653 1.0054-2.3291-1.1506-0.53715-2.0541-0.67463-2.077-3.0645-0.51112-1.5301 1.0026-2.7395 1.2553-3.1133 0.65055-0.33614-0.54388-1.1471-0.98895-1.8022-0.98904-0.85283-1.1e-4 -1.1573 2.9634-1.0723 10.438l0.1187 10.438 3.7164 4.3124c6.2062 7.2013 7.3883 10.887 9.079 28.308 0.56648 5.8369 3.8448 17.505 4.9184 17.505 0.16915 0 0.33727-3.1595 0.37361-7.0212zm-21.855-3.4788c0-0.55-0.43621-0.325-0.96937 0.5s-0.96937 1.95-0.96937 2.5 0.43621 0.325 0.96937-0.5 0.96937-1.95 0.96937-2.5zm-5e-3 -4.809c0.0197-0.44496-0.41437-0.5309-0.96437-0.19098s-1 0.16803-1-0.38197 0.37791-1.2336 0.83981-1.519c0.46189-0.28546 0.77778-3.6439 0.70197-7.4632-0.13203-6.6515-1.4431-10.136-3.814-10.136-1.3553 0-0.12402 17.818 1.3543 19.599 0.5957 0.71777 0.80214 2.3391 0.45875 3.603-0.59506 2.1902-0.55371 2.1808 0.88195-0.20201 0.82845-1.375 1.5222-2.8641 1.5417-3.309zm-91.964 1.309c0-0.55-0.45-1-1-1s-1 0.45-1 1 0.45 1 1 1 1-0.45 1-1zm85.761-16.75c-0.16333-6.1186 0.25741-11.533 1.1297-14.536 1.3309-4.5832 1.2917-4.891-0.92453-7.25-1.273-1.355-2.6488-2.4636-3.0574-2.4636-0.40863 0-1.5296 2.1375-2.491 4.75-1.7283 4.6965-3.4532 7.6038-3.3818 5.7 0.0403-1.0733 1.9793-9.0318 4.364-17.911 2.3175-8.6291 1.7748-9.5358-5.717-9.5523-3.4004-8e-3 -7.1951-0.285-8.4326-0.61664-3.031-0.81227-2.9498 1.3159 0.29465 7.7184 1.3996 2.7619 4.2758 9.6094 6.3918 15.217 4.9961 13.24 11.325 28.695 11.75 28.695 0.18383 0 0.21712-4.3875 0.074-9.75zm-85.69 3.6115c1.627-3.1891 1.8766-4.6229 1.088-6.25-1.0135-2.0913-1.024-2.0919-1.091-0.0615-0.0372 1.1275-0.45817 2.4775-0.93544 3-0.95553 1.0461-2.3546 7.45-1.6276 7.45 0.25007 0 1.4048-1.8623 2.566-4.1385zm41.352-15.75c-0.80911-0.85789-2.4565 5.3418-1.8099 6.8111 0.47323 1.0753 0.93025 0.30398 1.4354-2.4224 0.4076-2.2 0.57612-4.1749 0.3745-4.3887zm-25.423-11.111c0-0.55-0.45-1-1-1s-1 0.45-1 1 0.45 1 1 1 1-0.45 1-1zm92.145-42.081-0.91567-2.419-1.2751 2.75c-0.70132 1.5125-1.6687 2.75-2.1498 2.75-1.0367 0 0.4372-2.9542 4.2963-8.6113 3.6657-5.3736 5.5872-10.616 6.373-17.389 0.35102-3.025 0.88684-6.5125 1.1907-7.75 0.90408-3.6818-1.3405-2.581-4.7034 2.3067-1.8432 2.679-4.322 8.7093-6.0155 14.634-1.5842 5.5426-3.12 10.317-3.4129 10.61-1.7738 1.7738 1.6245-16.601 5.5057-29.769 1.9477-6.608 4.2088-11.513 6.0077-13.032 1.7507-1.4785 4.9541-10.14 4.9541-13.396v-3.7643l-5.6609 5.0455c-6.6779 5.9519-12.912 9.1145-17.966 9.1145-2.8673 0-4.5787-0.85692-7.9886-4-5.6992-5.2534-8.185-5.1902-14.177 0.36031-6.0138 5.5707-7.4107 6.2355-14.791 7.039-5.2492 0.57152-6.8272 0.31646-11.5-1.8587-5.4604-2.5418-8.4294-3.0483-11.334-1.9337-2.3044 0.88426-2.0348 1.6424 2.6844 7.5513 6.1544 7.706 11.255 15.811 12.487 19.842 0.58832 1.925 1.2849 7.775 1.5479 13l0.47823 9.5-1.7658-7c-1.7294-6.8556-1.7735-6.9175-2.1397-3-0.36385 3.8927-0.44884 3.769-3.1678-4.6086-2.2778-7.0184-3.7192-9.6045-7.8029-14l-5.009-5.3914 0.63563 7.4749 0.63564 7.4748 6.8858 8.0252c3.7872 4.4138 8.4498 9.4753 10.361 11.248 1.9116 1.7724 5.2929 5.8987 7.5141 9.1695 7.1371 10.51 11.649 12.489 24.232 10.631 10.463-1.5453 12.102-2.4043 15.432-8.0867 1.4591-2.4897 2.8597-4.32 3.1124-4.0673 0.69654 0.69654-1.6395 4.801-4.4465 7.8127l-2.4996 2.6818 3.8718 0.69978c4.3745 0.79065 7.1305 2.0509 9.3512 4.2762 1.3611 1.3639 1.55 0.31559 1.8009-9.989 0.15415-6.332-0.13177-12.601-0.63539-13.932zm-40.745 2.3157c-0.60516-0.40408-1.6184-1.719-2.2517-2.9221-1.1065-2.1021-1.005-2.1651 2.6003-1.6154l3.7517 0.57206-4-3.6835c-2.8357-2.6113-3.2723-3.3188-1.5-2.4304 3.276 1.642 20.494 1.1575 24.041-0.67651 1.4327-0.74086 3.1897-2.0517 3.9045-2.913 0.71478-0.86127 1.7411-1.5659 2.2808-1.5659s-0.41547 1.5907-2.1224 3.5348c-3.5728 4.0691-4.1053 5.6646-0.95808 2.8702l2.1455-1.905-1.274 2.5c-2.4201 4.749-4.1707 5.9994-8.422 6.0156-2.2522 9e-3 -6.795 0.66756-10.095 1.4644-7.1067 1.716-6.7152 1.6795-8.1003 0.75469zm-11.384-13.048c8e-3 -0.92792 0.34592-2.1463 0.75-2.7075 1.072-1.4889 6.2347-3.5934 6.2347-2.5415 0 0.49237-0.5625 1.0961-1.25 1.3416-0.6875 0.24554-0.97248 0.74806-0.63328 1.1167 0.33919 0.36866 2.736-0.0492 5.3263-0.92864 3.1534-1.0706 8.8166-1.6599 17.139-1.7834 9.4719-0.14056 12.317-0.48191 11.955-1.4344-0.66172-1.7427 0.95718-1.5639 2.4826 0.27417 1.7683 2.1307 0.7387 2.7657-5.0461 3.1117-2.7632 0.16529-6.8421 0.79007-9.0641 1.3884-2.9222 0.78688-4.9626 0.78342-7.3743-0.0125-3.5-1.1551-7.6716-0.60753-11.036 1.4486-1.1 0.67234-3.6875 1.4905-5.75 1.8182-3.0902 0.49092-3.7473 0.2989-3.7347-1.0914zm20.268-8.8801c-0.76544-2.1444-2.4547-3.8638-5.1438-5.2357-4.8321-2.4652-5.0975-2.8412-4.4384-6.2891 0.45392-2.3745 0.69666-2.5271 1.9795-1.2443 0.80415 0.80416 2.2602 1.4621 3.2357 1.4621s2.5881 0.9 3.5836 2c2.5508 2.8186 6.4159 2.4197 10.5-1.0835 3.2931-2.8248 3.5189-2.8814 3.8198-0.9577 0.17587 1.1245-0.27413 2.6799-1 3.4565s-2.3829 2.8008-3.6823 4.4983c-1.4381 1.8787-3.268 3.0864-4.6767 3.0864-1.3995 0-2.4571 0.69168-2.6758 1.75-0.25681 1.2426-0.69215 0.82421-1.5014-1.443zm8.7954-18.89c0.048-1.165 0.28494-1.4019 0.60416-0.60417 0.28887 0.72187 0.25335 1.5844-0.0789 1.9167-0.3323 0.33229-0.56864-0.25834-0.52522-1.3125zm-23.52-20.885c1.8073-1.367 1.8167-1.4704 0.13627-1.5-0.99268-0.0175-3.6927-0.88127-6-1.9195-2.8649-1.2891-6.5733-1.902-11.695-1.9329-6.433-0.0387-7.0869 0.10671-4.5959 1.0224 1.5972 0.58716 4.4725 2.132 6.3895 3.4329 4.1142 2.792 12.62 3.276 15.765 0.89711zm34.82-2.8199c0.29099 0.291 2.5778 0.22186 5.0818-0.15364 3.6859-0.55273 4.842-1.2421 6.0719-3.6205l1.5192-2.9378h-3.21c-3.4069 0-9.7006 2.7215-13.841 5.9852l-2.5 1.9704 3.1747-0.8864c1.7461-0.48753 3.4128-0.64833 3.7038-0.35734zm19.621 228.35c0-0.51754 0.44485-1.2159 0.98855-1.5519 0.56686-0.35034 0.7345 0.0511 0.39301 0.94098-0.66479 1.7324-1.3816 2.0494-1.3816 0.61096zm4.5-2.059c0.33992-0.55 0.81648-1 1.059-1s0.44098 0.45 0.44098 1-0.47656 1-1.059 1-0.7809-0.45-0.44098-1zm5.5-2c1.2683-1.1 2.5319-2 2.808-2s-0.31251 0.9-1.308 2-2.2591 2-2.808 2 0.0397-0.9 1.308-2zm-80.188 0.31689c0.72187-0.28887 1.5844-0.25335 1.9167 0.0789 0.33229 0.33229-0.25834 0.56864-1.3125 0.52522-1.165-0.048-1.4019-0.28494-0.60417-0.60416zm107.19-15.317c0-0.55 0.47656-1 1.059-1s0.7809 0.45 0.44098 1-0.81648 1-1.059 1-0.44098-0.45-0.44098-1zm-33-1.6761c0-0.23191 1.798-1.2267 3.9956-2.2105 2.1976-0.98388 3.751-2.0334 3.4521-2.3323-0.90642-0.90642 17.854-6.6425 32.259-9.8631 16.928-3.7848 19.454-3.2201 13.382 2.9914-2.408 2.4634-2.6241 3.0455-1.25 3.3676 0.91373 0.21414-0.13868 0.40901-2.3387 0.43307-3.1171 0.0341-3.5585-0.14895-2-0.82917 2.4926-1.0879-9.532-0.0188-13.91 1.2367-1.6924 0.48539-3.7551 0.84228-4.5838 0.7931-2.5768-0.15293 7.767-2.6879 13.848-3.3936 4.9194-0.57096 10.677-2.4553 7.6439-2.5016-0.88696-0.0136-14.489 2.5998-26.156 5.0255-2.287 0.47546-8.6995 2.4035-14.25 4.2846-5.5506 1.8811-10.092 3.2304-10.092 2.9985zm51.25-13.986c-0.6875-0.27741-1.8125-0.27741-2.5 0s-0.125 0.50439 1.25 0.50439 1.9375-0.22698 1.25-0.50439zm-69.25 11.162c1.375-0.78602 2.95-1.4291 3.5-1.4291s-0.125 0.64311-1.5 1.4291-2.95 1.4291-3.5 1.4291 0.125-0.64311 1.5-1.4291zm8-3.5c0.825-0.53316 1.95-0.96937 2.5-0.96937s0.325 0.43621-0.5 0.96937-1.95 0.96937-2.5 0.96937-0.325-0.43621 0.5-0.96937zm7-0.48799 2.5-1.6261-3 0.5708c-3.455 0.65737-1.5546-0.78789 2.5-1.9012 1.909-0.5242 2.1454-0.43822 1 0.36372-2.2768 1.5941-0.2324 1.2917 5.9334-0.87771 8.6566-3.0457 29.097-8.2078 30.398-7.6766 0.64266 0.26247 0.26847 0.54437-0.83153 0.62645-2 0.14923-2 0.14923 0 1.0625s2 0.91329 0 0.72482c-1.1-0.10366-3.0188 0.37294-4.264 1.0591-1.3102 0.72199-3.838 1.0144-6 0.69415-2.3562-0.34903-3.0437-0.25151-1.8616 0.26405 1.4479 0.63148 0.20379 1.3048-5.468 2.9594-4.0384 1.178-7.5149 1.9695-7.7256 1.7588s2.4749-1.2705 5.968-2.3551 5.6343-2.0141 4.7582-2.0656c-1.2929-0.0759-15.076 4.0709-24.407 7.3432-1.3992 0.49069-1.249 0.2129 0.5-0.92475zm33.5-8.512c1.2606-0.54172 1.4455-0.85943 0.5-0.85943-0.825 0-2.4 0.38674-3.5 0.85943-1.2606 0.54172-1.4455 0.85943-0.5 0.85943 0.825 0 2.4-0.38674 3.5-0.85943zm-5.6875 9.3169c0.72187-0.28887 1.5844-0.25335 1.9167 0.0789 0.33229 0.33229-0.25834 0.56864-1.3125 0.52522-1.165-0.048-1.4019-0.28494-0.60417-0.60416zm-21.812-5.3169c0.825-0.53316 2.175-0.94464 3-0.9144 0.98906 0.0362 0.81874 0.34772-0.5 0.9144-2.7491 1.1813-4.328 1.1813-2.5 0zm6-1.8513c0.825-0.48333 2.85-1.1707 4.5-1.5275 1.9197-0.4151 2.4599-0.33224 1.5 0.23011-0.825 0.48333-2.85 1.1707-4.5 1.5275-1.9197 0.4151-2.4599 0.33224-1.5-0.23011zm8.8125-2.8318c0.72187-0.28887 1.5844-0.25335 1.9167 0.0789 0.33229 0.33229-0.25834 0.56864-1.3125 0.52522-1.165-0.048-1.4019-0.28494-0.60417-0.60416zm22.188-1.3169c1.375-0.44035 3.4-0.80064 4.5-0.80064 1.5837 0 1.4796 0.16667-0.5 0.80064-1.375 0.44035-3.4 0.80064-4.5 0.80064-1.5837 0-1.4796-0.16667 0.5-0.80064zm-14.5-1c1.1-0.47269 2.675-0.85943 3.5-0.85943 0.94548 0 0.76064 0.31771-0.5 0.85943-1.1 0.47269-2.675 0.85943-3.5 0.85943-0.94548 0-0.76064-0.31771 0.5-0.85943zm26-1.4589c5.8748-1.5851 8.5-1.8294 8.5-0.79108 0 0.4125-1.0125 0.77659-2.25 0.80909s-4.275 0.34528-6.75 0.69508l-4.5 0.63599 5-1.3491zm-9.75-0.20336c0.6875-0.27741 1.8125-0.27741 2.5 0s0.125 0.50439-1.25 0.50439-1.9375-0.22698-1.25-0.50439zm-185.67-101.92c0.048-1.165 0.28494-1.4019 0.60416-0.60417 0.28888 0.72187 0.25335 1.5844-0.0789 1.9167-0.33229 0.33229-0.56864-0.25834-0.52522-1.3125z"/>
 </g>
</svg>
